<?xml version="1.0" encoding="utf-8" standalone="no"?>
<!DOCTYPE svg PUBLIC "-//W3C//DTD SVG 1.1//EN"
  "http://www.w3.org/Graphics/SVG/1.1/DTD/svg11.dtd">
<!-- Created with matplotlib (https://matplotlib.org/) -->
<svg height="269.424pt" version="1.1" viewBox="0 0 405 269.424" width="405pt" xmlns="http://www.w3.org/2000/svg" xmlns:xlink="http://www.w3.org/1999/xlink">
 <defs>
  <style type="text/css">
*{stroke-linecap:butt;stroke-linejoin:round;}
  </style>
 </defs>
 <g id="figure_1">
  <g id="patch_1">
   <path d="M 0 269.424 
L 405 269.424 
L 405 0 
L 0 0 
z
" style="fill:#ffffff;"/>
  </g>
  <g id="patch_2">
   <path d="M 7.2 262.224 
L 397.8 262.224 
L 397.8 7.2 
L 7.2 7.2 
z
" style="fill:#ffffff;"/>
  </g>
  <g id="pane3d_1">
   <g id="patch_3">
    <path d="M 207.778378 141.735182 
L 359.346993 191.865884 
L 367.452267 67.424925 
L 207.778378 22.427424 
" style="fill:#f2f2f2;opacity:0.5;stroke:#f2f2f2;stroke-linejoin:miter;"/>
   </g>
  </g>
  <g id="pane3d_2">
   <g id="patch_4">
    <path d="M 207.778378 141.735182 
L 56.209763 191.865884 
L 48.10449 67.424925 
L 207.778378 22.427424 
" style="fill:#e6e6e6;opacity:0.5;stroke:#e6e6e6;stroke-linejoin:miter;"/>
   </g>
  </g>
  <g id="pane3d_3">
   <g id="patch_5">
    <path d="M 207.778378 141.735182 
L 56.209763 191.865884 
L 207.778378 248.643025 
L 359.346993 191.865884 
" style="fill:#ececec;opacity:0.5;stroke:#ececec;stroke-linejoin:miter;"/>
   </g>
  </g>
  <g id="axis3d_1">
   <g id="line2d_1">
    <path d="M 359.346993 191.865884 
L 207.778378 248.643025 
" style="fill:none;stroke:#000000;stroke-linecap:square;stroke-width:0.8;"/>
   </g>
   <g id="text_1">
    <!-- F1 -->
    <defs>
     <path d="M 45.703125 61.328125 
L 13.671875 61.328125 
L 13.671875 39.453125 
L 37.890625 39.453125 
L 37.890625 32.03125 
L 13.671875 32.03125 
L 13.671875 1.953125 
L 4.6875 1.953125 
L 4.6875 68.75 
L 45.703125 68.75 
z
" id="SimHei-70"/>
     <path d="M 21.875 56.25 
Q 16.796875 51.171875 8.984375 46.484375 
L 8.984375 53.90625 
Q 18.75 60.546875 25 69.53125 
L 29.6875 69.53125 
L 29.6875 2.34375 
L 21.875 2.34375 
z
" id="SimHei-49"/>
    </defs>
    <g transform="translate(304.432273 248.549816)scale(0.1 -0.1)">
     <use xlink:href="#SimHei-70"/>
     <use x="50" xlink:href="#SimHei-49"/>
    </g>
   </g>
   <g id="Line3DCollection_1">
    <path d="M 355.557638 193.285365 
L 203.974689 142.993236 
L 203.783473 23.553223 
" style="fill:none;stroke:#b0b0b0;stroke-width:0.8;"/>
    <path d="M 337.931672 199.887998 
L 186.291743 148.841799 
L 185.203368 28.78926 
" style="fill:none;stroke:#b0b0b0;stroke-width:0.8;"/>
    <path d="M 320.032294 206.593051 
L 168.350816 154.775687 
L 166.338357 34.105585 
" style="fill:none;stroke:#b0b0b0;stroke-width:0.8;"/>
    <path d="M 301.853092 213.402924 
L 150.14622 160.796783 
L 147.181835 39.504061 
" style="fill:none;stroke:#b0b0b0;stroke-width:0.8;"/>
    <path d="M 283.387453 220.320096 
L 131.672099 166.907024 
L 127.726993 44.986606 
" style="fill:none;stroke:#b0b0b0;stroke-width:0.8;"/>
    <path d="M 264.628553 227.347123 
L 112.922424 173.108402 
L 107.966808 50.555199 
" style="fill:none;stroke:#b0b0b0;stroke-width:0.8;"/>
    <path d="M 245.56935 234.486642 
L 93.890983 179.402974 
L 87.894035 56.211883 
" style="fill:none;stroke:#b0b0b0;stroke-width:0.8;"/>
    <path d="M 226.202576 241.741377 
L 74.571377 185.792855 
L 67.501198 61.958763 
" style="fill:none;stroke:#b0b0b0;stroke-width:0.8;"/>
   </g>
   <g id="xtick_1">
    <g id="line2d_2">
     <path d="M 354.2701 192.858186 
L 358.136567 194.141001 
" style="fill:none;stroke:#000000;stroke-linecap:square;stroke-width:0.8;"/>
    </g>
    <g id="text_2">
     <!-- 0 -->
     <defs>
      <path d="M 3.125 29.296875 
Q 3.90625 50 6.4375 56.046875 
Q 8.984375 62.109375 13.671875 66.015625 
Q 18.359375 69.921875 25.1875 69.921875 
Q 32.03125 69.921875 37.109375 64.25 
Q 42.1875 58.59375 43.75 50 
Q 45.3125 41.40625 44.71875 30.265625 
Q 44.140625 19.140625 40.8125 12.109375 
Q 37.5 5.078125 30.859375 2.34375 
Q 24.21875 -0.390625 17.578125 2.921875 
Q 10.9375 6.25 8.203125 11.71875 
Q 5.46875 17.1875 4.296875 23.234375 
Q 3.125 29.296875 3.90625 50 
z
M 12.890625 52.734375 
Q 10.546875 31.25 12.5 22.84375 
Q 14.453125 14.453125 18.9375 10.9375 
Q 23.4375 7.421875 28.125 9.5625 
Q 32.8125 11.71875 34.953125 18.15625 
Q 37.109375 24.609375 37.109375 32.21875 
Q 37.109375 39.84375 36.515625 46.09375 
Q 35.9375 52.34375 33 57.421875 
Q 30.078125 62.5 25.1875 62.6875 
Q 20.3125 62.890625 16.59375 57.8125 
Q 12.890625 52.734375 10.546875 31.25 
z
" id="SimHei-48"/>
     </defs>
     <g transform="translate(363.565673 211.911714)scale(0.1 -0.1)">
      <use xlink:href="#SimHei-48"/>
     </g>
    </g>
   </g>
   <g id="xtick_2">
    <g id="line2d_3">
     <path d="M 336.643074 199.45422 
L 340.512754 200.756862 
" style="fill:none;stroke:#000000;stroke-linecap:square;stroke-width:0.8;"/>
    </g>
    <g id="text_3">
     <!-- 1000 -->
     <g transform="translate(338.506749 218.610065)scale(0.1 -0.1)">
      <use xlink:href="#SimHei-49"/>
      <use x="50" xlink:href="#SimHei-48"/>
      <use x="100" xlink:href="#SimHei-48"/>
      <use x="150" xlink:href="#SimHei-48"/>
     </g>
    </g>
   </g>
   <g id="xtick_3">
    <g id="line2d_4">
     <path d="M 318.742757 206.15252 
L 322.615285 207.475451 
" style="fill:none;stroke:#000000;stroke-linecap:square;stroke-width:0.8;"/>
    </g>
    <g id="text_4">
     <!-- 2000 -->
     <defs>
      <path d="M 4.6875 3.90625 
Q 5.078125 9.765625 10.15625 14.453125 
Q 15.234375 19.140625 23.046875 29.09375 
Q 30.859375 39.0625 33.203125 44.53125 
Q 35.546875 50 34.953125 53.90625 
Q 34.375 57.8125 31.25 60.34375 
Q 28.125 62.890625 24.015625 62.5 
Q 19.921875 62.109375 16.203125 59.375 
Q 12.5 56.640625 10.546875 51.171875 
L 3.125 52.34375 
Q 6.25 61.328125 11.125 65.421875 
Q 16.015625 69.53125 22.65625 69.921875 
Q 26.5625 70.3125 29.6875 69.71875 
Q 32.8125 69.140625 36.125 66.984375 
Q 39.453125 64.84375 41.59375 60.546875 
Q 43.75 56.25 43.15625 50.1875 
Q 42.578125 44.140625 37.109375 35.734375 
Q 31.640625 27.34375 16.015625 9.375 
L 44.140625 9.375 
L 44.140625 2.34375 
L 4.6875 2.34375 
z
" id="SimHei-50"/>
     </defs>
     <g transform="translate(320.675237 225.412402)scale(0.1 -0.1)">
      <use xlink:href="#SimHei-50"/>
      <use x="50" xlink:href="#SimHei-48"/>
      <use x="100" xlink:href="#SimHei-48"/>
      <use x="150" xlink:href="#SimHei-48"/>
     </g>
    </g>
   </g>
   <g id="xtick_4">
    <g id="line2d_5">
     <path d="M 300.562745 212.955481 
L 304.437737 214.29918 
" style="fill:none;stroke:#000000;stroke-linecap:square;stroke-width:0.8;"/>
    </g>
    <g id="text_5">
     <!-- 3000 -->
     <defs>
      <path d="M 3.90625 19.140625 
L 10.9375 20.3125 
Q 12.5 15.234375 16.015625 11.90625 
Q 19.53125 8.59375 24.796875 8.78125 
Q 30.078125 8.984375 33.203125 13.078125 
Q 36.328125 17.1875 35.9375 22.453125 
Q 35.546875 27.734375 31.828125 30.65625 
Q 28.125 33.59375 19.921875 34.765625 
L 19.921875 39.84375 
Q 28.125 40.625 31.828125 44.140625 
Q 35.546875 47.65625 35.15625 53.3125 
Q 34.765625 58.984375 30.078125 61.515625 
Q 25.390625 64.0625 20.109375 62.109375 
Q 14.84375 60.15625 11.71875 51.171875 
L 4.6875 52.34375 
Q 7.03125 59.375 11.125 64.0625 
Q 15.234375 68.75 22.265625 69.53125 
Q 29.296875 70.3125 34.5625 67.765625 
Q 39.84375 65.234375 41.984375 59.953125 
Q 44.140625 54.6875 42.578125 48.4375 
Q 41.015625 42.1875 33.59375 37.5 
Q 39.0625 35.15625 41.984375 30.46875 
Q 44.921875 25.78125 43.9375 18.15625 
Q 42.96875 10.546875 37.109375 5.859375 
Q 31.25 1.171875 23.828125 1.359375 
Q 16.40625 1.5625 10.9375 6.046875 
Q 5.46875 10.546875 3.90625 19.140625 
z
" id="SimHei-51"/>
     </defs>
     <g transform="translate(302.564739 232.321166)scale(0.1 -0.1)">
      <use xlink:href="#SimHei-51"/>
      <use x="50" xlink:href="#SimHei-48"/>
      <use x="100" xlink:href="#SimHei-48"/>
      <use x="150" xlink:href="#SimHei-48"/>
     </g>
    </g>
   </g>
   <g id="xtick_5">
    <g id="line2d_6">
     <path d="M 282.09643 219.865577 
L 285.973484 221.230537 
" style="fill:none;stroke:#000000;stroke-linecap:square;stroke-width:0.8;"/>
    </g>
    <g id="text_6">
     <!-- 4000 -->
     <defs>
      <path d="M 31.25 17.1875 
L 1.171875 17.1875 
L 1.171875 23.828125 
L 32.8125 69.53125 
L 38.671875 69.53125 
L 38.671875 23.828125 
L 48.046875 23.828125 
L 48.046875 17.1875 
L 38.671875 17.1875 
L 38.671875 2.34375 
L 31.25 2.34375 
z
M 31.25 23.828125 
L 31.25 54.6875 
L 9.375 23.828125 
z
" id="SimHei-52"/>
     </defs>
     <g transform="translate(284.168657 239.338874)scale(0.1 -0.1)">
      <use xlink:href="#SimHei-52"/>
      <use x="50" xlink:href="#SimHei-48"/>
      <use x="100" xlink:href="#SimHei-48"/>
      <use x="150" xlink:href="#SimHei-48"/>
     </g>
    </g>
   </g>
   <g id="xtick_6">
    <g id="line2d_7">
     <path d="M 263.336995 226.885359 
L 267.215687 228.272088 
" style="fill:none;stroke:#000000;stroke-linecap:square;stroke-width:0.8;"/>
    </g>
    <g id="text_7">
     <!-- 5000 -->
     <defs>
      <path d="M 8.59375 20.703125 
Q 11.328125 10.15625 17.96875 8.984375 
Q 24.609375 7.8125 28.703125 10.34375 
Q 32.8125 12.890625 34.5625 16.984375 
Q 36.328125 21.09375 36.125 26.171875 
Q 35.9375 31.25 33.390625 34.765625 
Q 30.859375 38.28125 26.953125 39.453125 
Q 23.046875 40.625 18.15625 39.453125 
Q 13.28125 38.28125 10.15625 33.984375 
L 3.515625 34.765625 
Q 4.296875 37.109375 10.9375 68.359375 
L 41.796875 68.359375 
L 41.796875 61.328125 
L 16.796875 61.328125 
Q 14.84375 50.78125 12.890625 44.53125 
Q 18.75 47.265625 23.828125 47.0625 
Q 28.90625 46.875 33.59375 44.71875 
Q 38.28125 42.578125 40.421875 38.859375 
Q 42.578125 35.15625 43.546875 31.4375 
Q 44.53125 27.734375 44.328125 23.4375 
Q 44.140625 19.140625 42.578125 14.640625 
Q 41.015625 10.15625 37.890625 7.21875 
Q 34.765625 4.296875 30.265625 2.53125 
Q 25.78125 0.78125 19.921875 1.171875 
Q 14.0625 1.5625 8.78125 5.46875 
Q 3.515625 9.375 1.5625 18.75 
z
" id="SimHei-53"/>
     </defs>
     <g transform="translate(265.48018 246.468125)scale(0.1 -0.1)">
      <use xlink:href="#SimHei-53"/>
      <use x="50" xlink:href="#SimHei-48"/>
      <use x="100" xlink:href="#SimHei-48"/>
      <use x="150" xlink:href="#SimHei-48"/>
     </g>
    </g>
   </g>
   <g id="xtick_7">
    <g id="line2d_8">
     <path d="M 244.277405 234.017458 
L 248.157292 235.426481 
" style="fill:none;stroke:#000000;stroke-linecap:square;stroke-width:0.8;"/>
    </g>
    <g id="text_8">
     <!-- 6000 -->
     <defs>
      <path d="M 3.515625 19.53125 
Q 4.296875 30.859375 6.046875 34.765625 
Q 7.8125 38.671875 11.328125 44.53125 
L 27.34375 69.53125 
L 36.328125 69.53125 
L 19.921875 43.75 
Q 30.46875 46.484375 36.71875 42.96875 
Q 42.96875 39.453125 45.109375 34.953125 
Q 47.265625 30.46875 47.453125 25.1875 
Q 47.65625 19.921875 45.890625 14.84375 
Q 44.140625 9.765625 39.640625 5.65625 
Q 35.15625 1.5625 27.140625 1.171875 
Q 19.140625 0.78125 13.46875 4.09375 
Q 7.8125 7.421875 5.65625 13.46875 
Q 3.515625 19.53125 4.296875 30.859375 
z
M 12.5 16.015625 
Q 19.53125 8.59375 25.390625 8.203125 
Q 31.25 7.8125 35.15625 12.109375 
Q 39.0625 16.40625 39.0625 24.609375 
Q 39.0625 32.8125 34.171875 35.9375 
Q 29.296875 39.0625 23.234375 38.28125 
Q 17.1875 37.5 14.453125 32.421875 
Q 11.71875 27.34375 12.109375 21.671875 
Q 12.5 16.015625 19.53125 8.59375 
z
" id="SimHei-54"/>
     </defs>
     <g transform="translate(246.492283 253.711598)scale(0.1 -0.1)">
      <use xlink:href="#SimHei-54"/>
      <use x="50" xlink:href="#SimHei-48"/>
      <use x="100" xlink:href="#SimHei-48"/>
      <use x="150" xlink:href="#SimHei-48"/>
     </g>
    </g>
   </g>
   <g id="xtick_8">
    <g id="line2d_9">
     <path d="M 224.9104 241.264593 
L 228.791013 242.696452 
" style="fill:none;stroke:#000000;stroke-linecap:square;stroke-width:0.8;"/>
    </g>
    <g id="text_9">
     <!-- 7000 -->
     <defs>
      <path d="M 13.28125 2.34375 
Q 20.3125 32.03125 37.890625 61.328125 
L 4.296875 61.328125 
L 4.296875 68.359375 
L 46.09375 68.359375 
L 46.09375 61.71875 
Q 27.734375 32.03125 21.875 2.34375 
L 13.28125 2.34375 
z
" id="SimHei-55"/>
     </defs>
     <g transform="translate(227.197711 261.07206)scale(0.1 -0.1)">
      <use xlink:href="#SimHei-55"/>
      <use x="50" xlink:href="#SimHei-48"/>
      <use x="100" xlink:href="#SimHei-48"/>
      <use x="150" xlink:href="#SimHei-48"/>
     </g>
    </g>
   </g>
  </g>
  <g id="axis3d_2">
   <g id="line2d_10">
    <path d="M 56.209763 191.865884 
L 207.778378 248.643025 
" style="fill:none;stroke:#000000;stroke-linecap:square;stroke-width:0.8;"/>
   </g>
   <g id="text_10">
    <!-- F2 -->
    <g transform="translate(101.124484 248.549816)scale(0.1 -0.1)">
     <use xlink:href="#SimHei-70"/>
     <use x="50" xlink:href="#SimHei-50"/>
    </g>
   </g>
   <g id="Line3DCollection_2">
    <path d="M 224.823318 27.230838 
L 224.003314 147.101513 
L 72.378678 197.92271 
" style="fill:none;stroke:#b0b0b0;stroke-width:0.8;"/>
    <path d="M 242.895215 32.323656 
L 241.193968 152.787252 
L 89.524587 204.345515 
" style="fill:none;stroke:#b0b0b0;stroke-width:0.8;"/>
    <path d="M 261.235146 37.49201 
L 258.627147 158.553205 
L 106.927762 210.864692 
" style="fill:none;stroke:#b0b0b0;stroke-width:0.8;"/>
    <path d="M 279.84912 42.737591 
L 276.308021 164.401082 
L 124.594038 217.482425 
" style="fill:none;stroke:#b0b0b0;stroke-width:0.8;"/>
    <path d="M 298.743324 48.062143 
L 294.241905 170.332641 
L 142.529425 224.200966 
" style="fill:none;stroke:#b0b0b0;stroke-width:0.8;"/>
    <path d="M 317.924134 53.467464 
L 312.43427 176.349692 
L 160.74012 231.022637 
" style="fill:none;stroke:#b0b0b0;stroke-width:0.8;"/>
    <path d="M 337.398123 58.955404 
L 330.890744 182.454095 
L 179.232511 237.94983 
" style="fill:none;stroke:#b0b0b0;stroke-width:0.8;"/>
    <path d="M 357.172063 64.527874 
L 349.617121 188.647768 
L 198.013185 244.985013 
" style="fill:none;stroke:#b0b0b0;stroke-width:0.8;"/>
   </g>
   <g id="xtick_9">
    <g id="line2d_11">
     <path d="M 73.666975 197.490902 
L 69.798209 198.787626 
" style="fill:none;stroke:#000000;stroke-linecap:square;stroke-width:0.8;"/>
    </g>
    <g id="text_11">
     <!-- -3500 -->
     <defs>
      <path d="M 46.484375 33.203125 
L 1.953125 33.203125 
L 1.953125 39.453125 
L 46.484375 39.453125 
z
" id="SimHei-45"/>
     </defs>
     <g transform="translate(49.323534 216.616278)scale(0.1 -0.1)">
      <use xlink:href="#SimHei-45"/>
      <use x="50" xlink:href="#SimHei-51"/>
      <use x="100" xlink:href="#SimHei-53"/>
      <use x="150" xlink:href="#SimHei-48"/>
      <use x="200" xlink:href="#SimHei-48"/>
     </g>
    </g>
   </g>
   <g id="xtick_10">
    <g id="line2d_12">
     <path d="M 90.813825 203.907254 
L 86.942205 205.223367 
" style="fill:none;stroke:#000000;stroke-linecap:square;stroke-width:0.8;"/>
    </g>
    <g id="text_12">
     <!-- -3000 -->
     <g transform="translate(66.404368 223.132247)scale(0.1 -0.1)">
      <use xlink:href="#SimHei-45"/>
      <use x="50" xlink:href="#SimHei-51"/>
      <use x="100" xlink:href="#SimHei-48"/>
      <use x="150" xlink:href="#SimHei-48"/>
      <use x="200" xlink:href="#SimHei-48"/>
     </g>
    </g>
   </g>
   <g id="xtick_11">
    <g id="line2d_13">
     <path d="M 108.217824 210.419831 
L 104.3437 211.755771 
" style="fill:none;stroke:#000000;stroke-linecap:square;stroke-width:0.8;"/>
    </g>
    <g id="text_13">
     <!-- -2500 -->
     <g transform="translate(83.741697 229.746064)scale(0.1 -0.1)">
      <use xlink:href="#SimHei-45"/>
      <use x="50" xlink:href="#SimHei-50"/>
      <use x="100" xlink:href="#SimHei-53"/>
      <use x="150" xlink:href="#SimHei-48"/>
      <use x="200" xlink:href="#SimHei-48"/>
     </g>
    </g>
   </g>
   <g id="xtick_12">
    <g id="line2d_14">
     <path d="M 125.884801 217.030815 
L 122.008539 218.387033 
" style="fill:none;stroke:#000000;stroke-linecap:square;stroke-width:0.8;"/>
    </g>
    <g id="text_14">
     <!-- -2000 -->
     <g transform="translate(101.34134 236.459948)scale(0.1 -0.1)">
      <use xlink:href="#SimHei-45"/>
      <use x="50" xlink:href="#SimHei-50"/>
      <use x="100" xlink:href="#SimHei-48"/>
      <use x="150" xlink:href="#SimHei-48"/>
      <use x="200" xlink:href="#SimHei-48"/>
     </g>
    </g>
   </g>
   <g id="xtick_13">
    <g id="line2d_15">
     <path d="M 143.820762 223.742452 
L 139.942746 225.119414 
" style="fill:none;stroke:#000000;stroke-linecap:square;stroke-width:0.8;"/>
    </g>
    <g id="text_15">
     <!-- -1500 -->
     <g transform="translate(119.209298 243.276188)scale(0.1 -0.1)">
      <use xlink:href="#SimHei-45"/>
      <use x="50" xlink:href="#SimHei-49"/>
      <use x="100" xlink:href="#SimHei-53"/>
      <use x="150" xlink:href="#SimHei-48"/>
      <use x="200" xlink:href="#SimHei-48"/>
     </g>
    </g>
   </g>
   <g id="xtick_14">
    <g id="line2d_16">
     <path d="M 162.031897 230.55706 
L 158.15253 231.955244 
" style="fill:none;stroke:#000000;stroke-linecap:square;stroke-width:0.8;"/>
    </g>
    <g id="text_16">
     <!-- -1000 -->
     <g transform="translate(137.351753 250.197143)scale(0.1 -0.1)">
      <use xlink:href="#SimHei-45"/>
      <use x="50" xlink:href="#SimHei-49"/>
      <use x="100" xlink:href="#SimHei-48"/>
      <use x="150" xlink:href="#SimHei-48"/>
      <use x="200" xlink:href="#SimHei-48"/>
     </g>
    </g>
   </g>
   <g id="xtick_15">
    <g id="line2d_17">
     <path d="M 180.524587 237.477025 
L 176.644292 238.896927 
" style="fill:none;stroke:#000000;stroke-linecap:square;stroke-width:0.8;"/>
    </g>
    <g id="text_17">
     <!-- -500 -->
     <g transform="translate(158.275079 257.225245)scale(0.1 -0.1)">
      <use xlink:href="#SimHei-45"/>
      <use x="50" xlink:href="#SimHei-53"/>
      <use x="100" xlink:href="#SimHei-48"/>
      <use x="150" xlink:href="#SimHei-48"/>
     </g>
    </g>
   </g>
   <g id="xtick_16">
    <g id="line2d_18">
     <path d="M 199.305412 244.504811 
L 195.424632 245.946941 
" style="fill:none;stroke:#000000;stroke-linecap:square;stroke-width:0.8;"/>
    </g>
    <g id="text_18">
     <!-- 0 -->
     <g transform="translate(184.48585 264.363)scale(0.1 -0.1)">
      <use xlink:href="#SimHei-48"/>
     </g>
    </g>
   </g>
  </g>
  <g id="axis3d_3">
   <g id="line2d_19">
    <path d="M 56.209763 191.865884 
L 48.10449 67.424925 
" style="fill:none;stroke:#000000;stroke-linecap:square;stroke-width:0.8;"/>
   </g>
   <g id="text_19">
    <!-- F3 -->
    <g transform="translate(1.014357 134.07823)scale(0.1 -0.1)">
     <use xlink:href="#SimHei-70"/>
     <use x="50" xlink:href="#SimHei-51"/>
    </g>
   </g>
   <g id="Line3DCollection_3">
    <path d="M 55.420608 179.749913 
L 207.778378 130.086187 
L 360.136149 179.749913 
" style="fill:none;stroke:#b0b0b0;stroke-width:0.8;"/>
    <path d="M 54.410984 164.249065 
L 207.778378 115.193121 
L 361.145773 164.249065 
" style="fill:none;stroke:#b0b0b0;stroke-width:0.8;"/>
    <path d="M 53.387889 148.54141 
L 207.778378 100.113191 
L 362.168867 148.54141 
" style="fill:none;stroke:#b0b0b0;stroke-width:0.8;"/>
    <path d="M 52.351053 132.622779 
L 207.778378 84.842855 
L 363.205703 132.622779 
" style="fill:none;stroke:#b0b0b0;stroke-width:0.8;"/>
    <path d="M 51.300197 116.488895 
L 207.778378 69.378485 
L 364.25656 116.488895 
" style="fill:none;stroke:#b0b0b0;stroke-width:0.8;"/>
    <path d="M 50.235034 100.13536 
L 207.778378 53.716359 
L 365.321722 100.13536 
" style="fill:none;stroke:#b0b0b0;stroke-width:0.8;"/>
    <path d="M 49.155271 83.557659 
L 207.778378 37.852659 
L 366.401486 83.557659 
" style="fill:none;stroke:#b0b0b0;stroke-width:0.8;"/>
   </g>
   <g id="xtick_17">
    <g id="line2d_20">
     <path d="M 56.714994 179.327985 
L 52.827949 180.595036 
" style="fill:none;stroke:#000000;stroke-linecap:square;stroke-width:0.8;"/>
    </g>
    <g id="text_20">
     <!-- -1400 -->
     <g transform="translate(22.078387 186.624913)scale(0.1 -0.1)">
      <use xlink:href="#SimHei-45"/>
      <use x="50" xlink:href="#SimHei-49"/>
      <use x="100" xlink:href="#SimHei-52"/>
      <use x="150" xlink:href="#SimHei-48"/>
      <use x="200" xlink:href="#SimHei-48"/>
     </g>
    </g>
   </g>
   <g id="xtick_18">
    <g id="line2d_21">
     <path d="M 55.714451 163.83214 
L 51.80011 165.084177 
" style="fill:none;stroke:#000000;stroke-linecap:square;stroke-width:0.8;"/>
    </g>
    <g id="text_21">
     <!-- -1200 -->
     <g transform="translate(20.930648 171.124065)scale(0.1 -0.1)">
      <use xlink:href="#SimHei-45"/>
      <use x="50" xlink:href="#SimHei-49"/>
      <use x="100" xlink:href="#SimHei-50"/>
      <use x="150" xlink:href="#SimHei-48"/>
      <use x="200" xlink:href="#SimHei-48"/>
     </g>
    </g>
   </g>
   <g id="xtick_19">
    <g id="line2d_22">
     <path d="M 54.700565 148.129658 
L 50.758543 149.366166 
" style="fill:none;stroke:#000000;stroke-linecap:square;stroke-width:0.8;"/>
    </g>
    <g id="text_22">
     <!-- -1000 -->
     <g transform="translate(19.767596 155.41641)scale(0.1 -0.1)">
      <use xlink:href="#SimHei-45"/>
      <use x="50" xlink:href="#SimHei-49"/>
      <use x="100" xlink:href="#SimHei-48"/>
      <use x="150" xlink:href="#SimHei-48"/>
      <use x="200" xlink:href="#SimHei-48"/>
     </g>
    </g>
   </g>
   <g id="xtick_20">
    <g id="line2d_23">
     <path d="M 53.673069 132.216379 
L 49.702973 133.436826 
" style="fill:none;stroke:#000000;stroke-linecap:square;stroke-width:0.8;"/>
    </g>
    <g id="text_23">
     <!-- -800 -->
     <defs>
      <path d="M 2.734375 16.796875 
Q 2.734375 26.171875 5.078125 30.65625 
Q 7.421875 35.15625 12.890625 37.890625 
Q 8.203125 40.625 6.640625 43.9375 
Q 5.078125 47.265625 4.875 51.5625 
Q 4.6875 55.859375 6.046875 58.984375 
Q 7.421875 62.109375 10.15625 64.84375 
Q 12.890625 67.578125 16.203125 68.546875 
Q 19.53125 69.53125 23.4375 69.53125 
Q 27.34375 69.53125 30.46875 68.75 
Q 33.59375 67.96875 37.109375 65.421875 
Q 40.625 62.890625 42.1875 58.203125 
Q 43.75 53.515625 41.984375 47.265625 
Q 40.234375 41.015625 32.8125 37.5 
Q 39.453125 35.546875 42.1875 31.4375 
Q 44.921875 27.34375 44.921875 21.484375 
Q 44.921875 15.625 43.15625 12.109375 
Q 41.40625 8.59375 39.25 6.25 
Q 37.109375 3.90625 33.390625 2.53125 
Q 29.6875 1.171875 24.015625 1.171875 
Q 18.359375 1.171875 14.25 2.53125 
Q 10.15625 3.90625 7.421875 6.640625 
Q 4.6875 9.375 3.703125 13.078125 
Q 2.734375 16.796875 2.734375 26.171875 
z
M 10.9375 26.5625 
Q 10.546875 17.1875 12.296875 13.671875 
Q 14.0625 10.15625 18.75 9.171875 
Q 23.4375 8.203125 28.515625 9.375 
Q 33.59375 10.546875 35.546875 14.84375 
Q 37.5 19.140625 36.90625 23.4375 
Q 36.328125 27.734375 32.03125 30.65625 
Q 27.734375 33.59375 22.65625 33.203125 
Q 17.578125 32.8125 14.25 29.6875 
Q 10.9375 26.5625 10.546875 17.1875 
z
M 12.109375 56.25 
Q 12.109375 48.4375 14.84375 44.921875 
Q 17.578125 41.40625 23.4375 41.40625 
Q 29.296875 41.40625 32.21875 44.921875 
Q 35.15625 48.4375 34.953125 53.3125 
Q 34.765625 58.203125 31.4375 60.546875 
Q 28.125 62.890625 22.453125 62.5 
Q 16.796875 62.109375 14.453125 59.171875 
Q 12.109375 56.25 12.109375 48.4375 
z
" id="SimHei-56"/>
     </defs>
     <g transform="translate(21.088923 139.497779)scale(0.1 -0.1)">
      <use xlink:href="#SimHei-45"/>
      <use x="50" xlink:href="#SimHei-56"/>
      <use x="100" xlink:href="#SimHei-48"/>
      <use x="150" xlink:href="#SimHei-48"/>
     </g>
    </g>
   </g>
   <g id="xtick_21">
    <g id="line2d_24">
     <path d="M 52.631686 116.088028 
L 48.633114 117.291865 
" style="fill:none;stroke:#000000;stroke-linecap:square;stroke-width:0.8;"/>
    </g>
    <g id="text_24">
     <!-- -600 -->
     <g transform="translate(19.894312 123.363895)scale(0.1 -0.1)">
      <use xlink:href="#SimHei-45"/>
      <use x="50" xlink:href="#SimHei-54"/>
      <use x="100" xlink:href="#SimHei-48"/>
      <use x="150" xlink:href="#SimHei-48"/>
     </g>
    </g>
   </g>
   <g id="xtick_22">
    <g id="line2d_25">
     <path d="M 51.576132 99.740215 
L 47.548675 100.926876 
" style="fill:none;stroke:#000000;stroke-linecap:square;stroke-width:0.8;"/>
    </g>
    <g id="text_25">
     <!-- -400 -->
     <g transform="translate(18.683438 107.01036)scale(0.1 -0.1)">
      <use xlink:href="#SimHei-45"/>
      <use x="50" xlink:href="#SimHei-52"/>
      <use x="100" xlink:href="#SimHei-48"/>
      <use x="150" xlink:href="#SimHei-48"/>
     </g>
    </g>
   </g>
   <g id="xtick_23">
    <g id="line2d_26">
     <path d="M 50.506117 83.168432 
L 46.449356 84.33733 
" style="fill:none;stroke:#000000;stroke-linecap:square;stroke-width:0.8;"/>
    </g>
    <g id="text_26">
     <!-- -200 -->
     <g transform="translate(17.455965 90.432659)scale(0.1 -0.1)">
      <use xlink:href="#SimHei-45"/>
      <use x="50" xlink:href="#SimHei-50"/>
      <use x="100" xlink:href="#SimHei-48"/>
      <use x="150" xlink:href="#SimHei-48"/>
     </g>
    </g>
   </g>
  </g>
  <g id="axes_1">
   <g id="line2d_27">
    <defs>
     <path d="M 0 1.5 
C 0.397805 1.5 0.77937 1.341951 1.06066 1.06066 
C 1.341951 0.77937 1.5 0.397805 1.5 0 
C 1.5 -0.397805 1.341951 -0.77937 1.06066 -1.06066 
C 0.77937 -1.341951 0.397805 -1.5 0 -1.5 
C -0.397805 -1.5 -0.77937 -1.341951 -1.06066 -1.06066 
C -1.341951 -0.77937 -1.5 -0.397805 -1.5 0 
C -1.5 0.397805 -1.341951 0.77937 -1.06066 1.06066 
C -0.77937 1.341951 -0.397805 1.5 0 1.5 
z
" id="m5a8cc32b9c" style="stroke:#4682b4;"/>
    </defs>
    <g clip-path="url(#p662db45274)">
     <use style="fill:#4682b4;stroke:#4682b4;" x="75.365885" xlink:href="#m5a8cc32b9c" y="189.501"/>
     <use style="fill:#4682b4;stroke:#4682b4;" x="132.155822" xlink:href="#m5a8cc32b9c" y="156.718146"/>
     <use style="fill:#4682b4;stroke:#4682b4;" x="116.597653" xlink:href="#m5a8cc32b9c" y="169.975575"/>
     <use style="fill:#4682b4;stroke:#4682b4;" x="271.829002" xlink:href="#m5a8cc32b9c" y="140.621063"/>
     <use style="fill:#4682b4;stroke:#4682b4;" x="221.843344" xlink:href="#m5a8cc32b9c" y="154.560834"/>
     <use style="fill:#4682b4;stroke:#4682b4;" x="259.358401" xlink:href="#m5a8cc32b9c" y="155.239453"/>
     <use style="fill:#4682b4;stroke:#4682b4;" x="148.323145" xlink:href="#m5a8cc32b9c" y="173.268898"/>
     <use style="fill:#4682b4;stroke:#4682b4;" x="283.671068" xlink:href="#m5a8cc32b9c" y="187.324911"/>
     <use style="fill:#4682b4;stroke:#4682b4;" x="208.012641" xlink:href="#m5a8cc32b9c" y="203.273673"/>
     <use style="fill:#4682b4;stroke:#4682b4;" x="285.128362" xlink:href="#m5a8cc32b9c" y="114.019204"/>
     <use style="fill:#4682b4;stroke:#4682b4;" x="213.462218" xlink:href="#m5a8cc32b9c" y="182.110368"/>
     <use style="fill:#4682b4;stroke:#4682b4;" x="266.941028" xlink:href="#m5a8cc32b9c" y="88.761379"/>
     <use style="fill:#4682b4;stroke:#4682b4;" x="183.488265" xlink:href="#m5a8cc32b9c" y="179.142336"/>
     <use style="fill:#4682b4;stroke:#4682b4;" x="179.438904" xlink:href="#m5a8cc32b9c" y="197.13584"/>
     <use style="fill:#4682b4;stroke:#4682b4;" x="212.406896" xlink:href="#m5a8cc32b9c" y="102.261286"/>
     <use style="fill:#4682b4;stroke:#4682b4;" x="250.028518" xlink:href="#m5a8cc32b9c" y="187.651717"/>
     <use style="fill:#4682b4;stroke:#4682b4;" x="207.7299" xlink:href="#m5a8cc32b9c" y="129.936249"/>
     <use style="fill:#4682b4;stroke:#4682b4;" x="233.901085" xlink:href="#m5a8cc32b9c" y="133.286118"/>
     <use style="fill:#4682b4;stroke:#4682b4;" x="138.670353" xlink:href="#m5a8cc32b9c" y="194.78558"/>
     <use style="fill:#4682b4;stroke:#4682b4;" x="250.302165" xlink:href="#m5a8cc32b9c" y="184.474956"/>
     <use style="fill:#4682b4;stroke:#4682b4;" x="234.722393" xlink:href="#m5a8cc32b9c" y="205.580491"/>
     <use style="fill:#4682b4;stroke:#4682b4;" x="319.522808" xlink:href="#m5a8cc32b9c" y="119.33875"/>
     <use style="fill:#4682b4;stroke:#4682b4;" x="195.387755" xlink:href="#m5a8cc32b9c" y="143.782682"/>
     <use style="fill:#4682b4;stroke:#4682b4;" x="279.866734" xlink:href="#m5a8cc32b9c" y="132.683135"/>
     <use style="fill:#4682b4;stroke:#4682b4;" x="297.497696" xlink:href="#m5a8cc32b9c" y="84.998891"/>
     <use style="fill:#4682b4;stroke:#4682b4;" x="249.962019" xlink:href="#m5a8cc32b9c" y="111.566388"/>
     <use style="fill:#4682b4;stroke:#4682b4;" x="92.947117" xlink:href="#m5a8cc32b9c" y="174.476315"/>
     <use style="fill:#4682b4;stroke:#4682b4;" x="177.785983" xlink:href="#m5a8cc32b9c" y="193.393165"/>
     <use style="fill:#4682b4;stroke:#4682b4;" x="160.994863" xlink:href="#m5a8cc32b9c" y="150.603686"/>
     <use style="fill:#4682b4;stroke:#4682b4;" x="196.863025" xlink:href="#m5a8cc32b9c" y="134.651425"/>
     <use style="fill:#4682b4;stroke:#4682b4;" x="303.647924" xlink:href="#m5a8cc32b9c" y="139.143082"/>
     <use style="fill:#4682b4;stroke:#4682b4;" x="167.308429" xlink:href="#m5a8cc32b9c" y="119.307767"/>
     <use style="fill:#4682b4;stroke:#4682b4;" x="328.018088" xlink:href="#m5a8cc32b9c" y="92.195779"/>
     <use style="fill:#4682b4;stroke:#4682b4;" x="317.421997" xlink:href="#m5a8cc32b9c" y="80.215869"/>
     <use style="fill:#4682b4;stroke:#4682b4;" x="305.87164" xlink:href="#m5a8cc32b9c" y="128.303925"/>
     <use style="fill:#4682b4;stroke:#4682b4;" x="270.207118" xlink:href="#m5a8cc32b9c" y="158.07531"/>
     <use style="fill:#4682b4;stroke:#4682b4;" x="104.379816" xlink:href="#m5a8cc32b9c" y="190.965426"/>
     <use style="fill:#4682b4;stroke:#4682b4;" x="225.708362" xlink:href="#m5a8cc32b9c" y="120.459749"/>
     <use style="fill:#4682b4;stroke:#4682b4;" x="266.740336" xlink:href="#m5a8cc32b9c" y="210.468078"/>
     <use style="fill:#4682b4;stroke:#4682b4;" x="271.003501" xlink:href="#m5a8cc32b9c" y="186.893117"/>
     <use style="fill:#4682b4;stroke:#4682b4;" x="322.121636" xlink:href="#m5a8cc32b9c" y="119.599275"/>
     <use style="fill:#4682b4;stroke:#4682b4;" x="320.249339" xlink:href="#m5a8cc32b9c" y="73.72703"/>
     <use style="fill:#4682b4;stroke:#4682b4;" x="241.301146" xlink:href="#m5a8cc32b9c" y="115.064537"/>
     <use style="fill:#4682b4;stroke:#4682b4;" x="247.851008" xlink:href="#m5a8cc32b9c" y="117.005285"/>
     <use style="fill:#4682b4;stroke:#4682b4;" x="104.379816" xlink:href="#m5a8cc32b9c" y="190.965426"/>
     <use style="fill:#4682b4;stroke:#4682b4;" x="279.601184" xlink:href="#m5a8cc32b9c" y="206.908562"/>
     <use style="fill:#4682b4;stroke:#4682b4;" x="285.444102" xlink:href="#m5a8cc32b9c" y="159.975347"/>
     <use style="fill:#4682b4;stroke:#4682b4;" x="131.540627" xlink:href="#m5a8cc32b9c" y="159.915636"/>
     <use style="fill:#4682b4;stroke:#4682b4;" x="295.975535" xlink:href="#m5a8cc32b9c" y="84.852571"/>
     <use style="fill:#4682b4;stroke:#4682b4;" x="259.635304" xlink:href="#m5a8cc32b9c" y="150.117502"/>
     <use style="fill:#4682b4;stroke:#4682b4;" x="273.861209" xlink:href="#m5a8cc32b9c" y="87.358239"/>
     <use style="fill:#4682b4;stroke:#4682b4;" x="138.989073" xlink:href="#m5a8cc32b9c" y="123.316785"/>
     <use style="fill:#4682b4;stroke:#4682b4;" x="346.273377" xlink:href="#m5a8cc32b9c" y="76.685338"/>
     <use style="fill:#4682b4;stroke:#4682b4;" x="189.868224" xlink:href="#m5a8cc32b9c" y="150.567388"/>
     <use style="fill:#4682b4;stroke:#4682b4;" x="196.863025" xlink:href="#m5a8cc32b9c" y="134.651425"/>
     <use style="fill:#4682b4;stroke:#4682b4;" x="140.163812" xlink:href="#m5a8cc32b9c" y="122.997697"/>
     <use style="fill:#4682b4;stroke:#4682b4;" x="229.978763" xlink:href="#m5a8cc32b9c" y="170.04204"/>
     <use style="fill:#4682b4;stroke:#4682b4;" x="296.23351" xlink:href="#m5a8cc32b9c" y="165.510933"/>
     <use style="fill:#4682b4;stroke:#4682b4;" x="307.832154" xlink:href="#m5a8cc32b9c" y="129.445866"/>
     <use style="fill:#4682b4;stroke:#4682b4;" x="232.112243" xlink:href="#m5a8cc32b9c" y="195.615184"/>
     <use style="fill:#4682b4;stroke:#4682b4;" x="208.769101" xlink:href="#m5a8cc32b9c" y="160.774459"/>
     <use style="fill:#4682b4;stroke:#4682b4;" x="284.36672" xlink:href="#m5a8cc32b9c" y="129.337528"/>
     <use style="fill:#4682b4;stroke:#4682b4;" x="296.815593" xlink:href="#m5a8cc32b9c" y="84.933323"/>
     <use style="fill:#4682b4;stroke:#4682b4;" x="159.079281" xlink:href="#m5a8cc32b9c" y="152.374689"/>
     <use style="fill:#4682b4;stroke:#4682b4;" x="235.434107" xlink:href="#m5a8cc32b9c" y="140.095721"/>
     <use style="fill:#4682b4;stroke:#4682b4;" x="224.21616" xlink:href="#m5a8cc32b9c" y="171.599789"/>
     <use style="fill:#4682b4;stroke:#4682b4;" x="207.649897" xlink:href="#m5a8cc32b9c" y="203.618761"/>
     <use style="fill:#4682b4;stroke:#4682b4;" x="279.419961" xlink:href="#m5a8cc32b9c" y="106.162069"/>
     <use style="fill:#4682b4;stroke:#4682b4;" x="278.238205" xlink:href="#m5a8cc32b9c" y="89.050395"/>
     <use style="fill:#4682b4;stroke:#4682b4;" x="82.709489" xlink:href="#m5a8cc32b9c" y="185.220796"/>
     <use style="fill:#4682b4;stroke:#4682b4;" x="314.348662" xlink:href="#m5a8cc32b9c" y="127.895705"/>
     <use style="fill:#4682b4;stroke:#4682b4;" x="135.704129" xlink:href="#m5a8cc32b9c" y="194.492621"/>
     <use style="fill:#4682b4;stroke:#4682b4;" x="293.837015" xlink:href="#m5a8cc32b9c" y="116.469816"/>
     <use style="fill:#4682b4;stroke:#4682b4;" x="185.769524" xlink:href="#m5a8cc32b9c" y="108.748357"/>
     <use style="fill:#4682b4;stroke:#4682b4;" x="294.641613" xlink:href="#m5a8cc32b9c" y="151.939856"/>
     <use style="fill:#4682b4;stroke:#4682b4;" x="312.699281" xlink:href="#m5a8cc32b9c" y="86.515251"/>
     <use style="fill:#4682b4;stroke:#4682b4;" x="94.254973" xlink:href="#m5a8cc32b9c" y="178.664266"/>
     <use style="fill:#4682b4;stroke:#4682b4;" x="168.766258" xlink:href="#m5a8cc32b9c" y="112.619084"/>
     <use style="fill:#4682b4;stroke:#4682b4;" x="245.777799" xlink:href="#m5a8cc32b9c" y="194.895435"/>
     <use style="fill:#4682b4;stroke:#4682b4;" x="160.718991" xlink:href="#m5a8cc32b9c" y="150.574332"/>
     <use style="fill:#4682b4;stroke:#4682b4;" x="189.986548" xlink:href="#m5a8cc32b9c" y="108.484344"/>
     <use style="fill:#4682b4;stroke:#4682b4;" x="283.411981" xlink:href="#m5a8cc32b9c" y="188.286088"/>
     <use style="fill:#4682b4;stroke:#4682b4;" x="217.232613" xlink:href="#m5a8cc32b9c" y="103.55655"/>
     <use style="fill:#4682b4;stroke:#4682b4;" x="238.965765" xlink:href="#m5a8cc32b9c" y="155.62226"/>
     <use style="fill:#4682b4;stroke:#4682b4;" x="148.172345" xlink:href="#m5a8cc32b9c" y="173.273418"/>
     <use style="fill:#4682b4;stroke:#4682b4;" x="186.654369" xlink:href="#m5a8cc32b9c" y="108.108415"/>
     <use style="fill:#4682b4;stroke:#4682b4;" x="341.642177" xlink:href="#m5a8cc32b9c" y="68.522059"/>
     <use style="fill:#4682b4;stroke:#4682b4;" x="185.13817" xlink:href="#m5a8cc32b9c" y="164.976539"/>
     <use style="fill:#4682b4;stroke:#4682b4;" x="321.237396" xlink:href="#m5a8cc32b9c" y="73.339219"/>
     <use style="fill:#4682b4;stroke:#4682b4;" x="100.188905" xlink:href="#m5a8cc32b9c" y="173.031345"/>
     <use style="fill:#4682b4;stroke:#4682b4;" x="346.273377" xlink:href="#m5a8cc32b9c" y="76.685338"/>
    </g>
   </g>
  </g>
 </g>
 <defs>
  <clipPath id="p662db45274">
   <rect height="255.024" width="390.6" x="7.2" y="7.2"/>
  </clipPath>
 </defs>
</svg>
